<svg xmlns="http://www.w3.org/2000/svg" width="26" height="28" viewBox="0 0 26 28"><style>.st0{fill:#253765}</style><path class="st0" d="M13.25 2c2.812-.031 5.141 1.547 6.312 4.078.359.766.422 1.953.422 2.797 0 1-.078 1.984-.141 2.984.125.063.297.109.438.109.562 0 1.031-.422 1.594-.422.531 0 1.297.375 1.297 1 0 1.5-3.141 1.219-3.141 2.531 0 .234.094.453.187.672.75 1.641 2.172 3.219 3.859 3.922.406.172.812.266 1.25.359a.527.527 0 0 1 .438.547c0 1.062-2.703 1.5-3.422 1.609-.313.484-.078 1.625-.906 1.625-.641 0-1.281-.203-1.969-.203-.328 0-.656.016-.969.078-1.859.313-2.484 2.312-5.531 2.312-2.938 0-3.641-2-5.453-2.312a5.183 5.183 0 0 0-.984-.078c-.703 0-1.375.234-1.937.234-.875 0-.609-1.156-.938-1.656-.719-.109-3.422-.547-3.422-1.609 0-.281.156-.484.438-.547.438-.094.844-.187 1.25-.359 1.672-.688 3.125-2.281 3.859-3.922.094-.219.187-.438.187-.672 0-1.313-3.156-1.062-3.156-2.516 0-.609.719-1 1.266-1 .484 0 .969.406 1.578.406.172 0 .344-.031.5-.109-.063-.984-.141-1.969-.141-2.969 0-.844.063-2.047.422-2.812C7.812 3.108 10.14 2.03 13.25 1.999z"/></svg>