<?xml version="1.0" encoding="UTF-8"?><!DOCTYPE svg PUBLIC "-//W3C//DTD SVG 1.1//EN" "http://www.w3.org/Graphics/SVG/1.1/DTD/svg11.dtd"><svg xmlns="http://www.w3.org/2000/svg"><symbol id="icon-caret-circle-right" viewBox="0 0 27 32"><path d="M12.804 24.911l8.107-8.107q.339-.339.339-.804t-.339-.804l-8.107-8.107Q12.465 6.75 12 6.75t-.804.339L9.375 8.91q-.339.339-.339.804t.339.804L14.857 16l-5.482 5.482q-.339.339-.339.804t.339.804l1.821 1.821q.339.339.804.339t.804-.339zM27.429 16q0 3.732-1.839 6.884t-4.991 4.991-6.884 1.839-6.884-1.839-4.991-4.991T.001 16 1.84 9.116t4.991-4.991 6.884-1.839 6.884 1.839 4.991 4.991T27.429 16z"/></symbol><symbol id="icon-caret-down" viewBox="0 0 32 32"><path d="M30.054 14.429l-13.25 13.232Q16.465 28 16 28t-.804-.339L1.946 14.429q-.339-.339-.339-.813t.339-.813L4.91 9.857q.339-.339.804-.339t.804.339L16 19.339l9.482-9.482q.339-.339.804-.339t.804.339l2.964 2.946q.339.339.339.813t-.339.813z"/></symbol><symbol id="icon-caret-right" viewBox="0 0 22 32"><path d="M19.768 15.661l-13.25 13.25q-.339.339-.804.339t-.804-.339l-2.964-2.964q-.339-.339-.339-.804t.339-.804l9.482-9.482-9.482-9.482q-.339-.339-.339-.804t.339-.804L4.91.803q.339-.339.804-.339t.804.339l13.25 13.25q.339.339.339.804t-.339.804z"/></symbol><symbol id="icon-facebook" viewBox="0 0 16 28"><path d="M14.984.187v4.125h-2.453c-1.922 0-2.281.922-2.281 2.25v2.953h4.578l-.609 4.625H10.25v11.859H5.469V14.14H1.485V9.515h3.984V6.109C5.469 2.156 7.891 0 11.422 0c1.687 0 3.141.125 3.563.187z"/></symbol><symbol id="icon-google-plus" viewBox="0 0 41 32"><path d="M25.661 16.304q0 3.714-1.554 6.616t-4.429 4.536-6.589 1.634q-2.661 0-5.089-1.036t-4.179-2.786-2.786-4.179T-.001 16t1.036-5.089 2.786-4.179T8 3.946t5.089-1.036q5.107 0 8.768 3.429L18.303 9.75q-2.089-2.018-5.214-2.018-2.196 0-4.063 1.107t-2.955 3.009T4.982 16t1.089 4.152 2.955 3.009 4.063 1.107q1.482 0 2.723-.411t2.045-1.027 1.402-1.402.875-1.482.384-1.321h-7.429v-4.5h12.357q.214 1.125.214 2.179zm15.482-2.179v3.75h-3.732v3.732h-3.75v-3.732h-3.732v-3.75h3.732v-3.732h3.75v3.732h3.732z"/></symbol><symbol id="icon-instagram" viewBox="0 0 24 28"><path d="M16 14c0-2.203-1.797-4-4-4s-4 1.797-4 4 1.797 4 4 4 4-1.797 4-4zm2.156 0c0 3.406-2.75 6.156-6.156 6.156S5.844 17.406 5.844 14 8.594 7.844 12 7.844s6.156 2.75 6.156 6.156zm1.688-6.406c0 .797-.641 1.437-1.437 1.437S16.97 8.39 16.97 7.594s.641-1.437 1.437-1.437 1.437.641 1.437 1.437zM12 4.156c-1.75 0-5.5-.141-7.078.484-.547.219-.953.484-1.375.906s-.688.828-.906 1.375c-.625 1.578-.484 5.328-.484 7.078s-.141 5.5.484 7.078c.219.547.484.953.906 1.375s.828.688 1.375.906c1.578.625 5.328.484 7.078.484s5.5.141 7.078-.484c.547-.219.953-.484 1.375-.906s.688-.828.906-1.375c.625-1.578.484-5.328.484-7.078s.141-5.5-.484-7.078c-.219-.547-.484-.953-.906-1.375s-.828-.688-1.375-.906C17.5 4.015 13.75 4.156 12 4.156zM24 14c0 1.656.016 3.297-.078 4.953-.094 1.922-.531 3.625-1.937 5.031s-3.109 1.844-5.031 1.937c-1.656.094-3.297.078-4.953.078s-3.297.016-4.953-.078c-1.922-.094-3.625-.531-5.031-1.937S.173 20.875.08 18.953C-.014 17.297.002 15.656.002 14s-.016-3.297.078-4.953c.094-1.922.531-3.625 1.937-5.031s3.109-1.844 5.031-1.937c1.656-.094 3.297-.078 4.953-.078s3.297-.016 4.953.078c1.922.094 3.625.531 5.031 1.937s1.844 3.109 1.937 5.031C24.016 10.703 24 12.344 24 14z"/></symbol><symbol id="icon-linkedin" viewBox="0 0 27 32"><path d="M6.232 11.161v17.696H.339V11.161h5.893zm.375-5.465Q6.625 7 5.705 7.875t-2.42.875h-.036q-1.464 0-2.357-.875t-.893-2.179q0-1.321.92-2.188t2.402-.866 2.375.866.911 2.188zm20.822 13.018v10.143h-5.875v-9.464q0-1.875-.723-2.938t-2.259-1.063q-1.125 0-1.884.616t-1.134 1.527q-.196.536-.196 1.446v9.875H9.483q.036-7.125.036-11.554t-.018-5.286l-.018-.857h5.875v2.571h-.036q.357-.571.732-1t1.009-.929 1.554-.777 2.045-.277q3.054 0 4.911 2.027t1.857 5.938z"/></symbol><symbol id="icon-snapchat" viewBox="0 0 26 28"><path d="M13.25 2c2.812-.031 5.141 1.547 6.312 4.078.359.766.422 1.953.422 2.797 0 1-.078 1.984-.141 2.984.125.063.297.109.438.109.562 0 1.031-.422 1.594-.422.531 0 1.297.375 1.297 1 0 1.5-3.141 1.219-3.141 2.531 0 .234.094.453.187.672.75 1.641 2.172 3.219 3.859 3.922.406.172.812.266 1.25.359a.527.527 0 0 1 .438.547c0 1.062-2.703 1.5-3.422 1.609-.313.484-.078 1.625-.906 1.625-.641 0-1.281-.203-1.969-.203-.328 0-.656.016-.969.078-1.859.313-2.484 2.312-5.531 2.312-2.938 0-3.641-2-5.453-2.312a5.183 5.183 0 0 0-.984-.078c-.703 0-1.375.234-1.937.234-.875 0-.609-1.156-.938-1.656-.719-.109-3.422-.547-3.422-1.609 0-.281.156-.484.438-.547.438-.094.844-.187 1.25-.359 1.672-.688 3.125-2.281 3.859-3.922.094-.219.187-.438.187-.672 0-1.313-3.156-1.062-3.156-2.516 0-.609.719-1 1.266-1 .484 0 .969.406 1.578.406.172 0 .344-.031.5-.109-.063-.984-.141-1.969-.141-2.969 0-.844.063-2.047.422-2.812C7.812 3.108 10.14 2.03 13.25 1.999z"/></symbol><symbol id="icon-twitter" viewBox="0 0 26 28"><path d="M25.312 6.375a10.85 10.85 0 0 1-2.531 2.609c.016.219.016.438.016.656 0 6.672-5.078 14.359-14.359 14.359-2.859 0-5.516-.828-7.75-2.266.406.047.797.063 1.219.063 2.359 0 4.531-.797 6.266-2.156a5.056 5.056 0 0 1-4.719-3.5c.313.047.625.078.953.078.453 0 .906-.063 1.328-.172a5.048 5.048 0 0 1-4.047-4.953v-.063a5.093 5.093 0 0 0 2.281.641 5.044 5.044 0 0 1-2.25-4.203c0-.938.25-1.797.688-2.547a14.344 14.344 0 0 0 10.406 5.281 5.708 5.708 0 0 1-.125-1.156 5.045 5.045 0 0 1 5.047-5.047 5.03 5.03 0 0 1 3.687 1.594 9.943 9.943 0 0 0 3.203-1.219 5.032 5.032 0 0 1-2.219 2.781c1.016-.109 2-.391 2.906-.781z"/></symbol><symbol id="icon-youtube" viewBox="0 0 28 28"><path d="M11.109 17.625l7.562-3.906-7.562-3.953v7.859zM14 4.156c5.891 0 9.797.281 9.797.281.547.063 1.75.063 2.812 1.188 0 0 .859.844 1.109 2.781.297 2.266.281 4.531.281 4.531v2.125s.016 2.266-.281 4.531c-.25 1.922-1.109 2.781-1.109 2.781-1.062 1.109-2.266 1.109-2.812 1.172 0 0-3.906.297-9.797.297-7.281-.063-9.516-.281-9.516-.281-.625-.109-2.031-.078-3.094-1.188 0 0-.859-.859-1.109-2.781C-.016 17.327 0 15.062 0 15.062v-2.125s-.016-2.266.281-4.531C.531 6.469 1.39 5.625 1.39 5.625 2.452 4.5 3.656 4.5 4.202 4.437c0 0 3.906-.281 9.797-.281z"/></symbol></svg>